<?xml version="1.0" standalone="no"?>
<!DOCTYPE svg PUBLIC "-//W3C//DTD SVG 20010904//EN"
 "http://www.w3.org/TR/2001/REC-SVG-20010904/DTD/svg10.dtd">
<svg version="1.0" xmlns="http://www.w3.org/2000/svg"
 width="1024.000000pt" height="1024.000000pt" viewBox="0 0 1024.000000 1024.000000"
 preserveAspectRatio="xMidYMid meet">
<metadata>
Created by potrace 1.15, written by Peter Selinger 2001-2017
</metadata>
<g transform="translate(0.000000,1024.000000) scale(0.100000,-0.100000)"
fill="#000000" stroke="none">
<path d="M8565 8795 c-37 -20 -90 -53 -119 -75 -28 -21 -302 -290 -609 -597
l-557 -558 -9 -80 c-5 -44 -9 -114 -10 -155 -1 -41 -10 -289 -21 -550 -20
-479 -41 -1037 -60 -1600 -5 -168 -15 -440 -20 -605 -14 -398 -42 -588 -97
-668 -55 -79 -185 -151 -349 -193 -106 -27 -107 -27 -1009 -50 -1023 -26
-1558 -44 -1625 -56 -36 -6 -87 -19 -114 -30 -63 -24 -175 -48 -230 -48 -23 0
-76 -9 -117 -19 -90 -24 -186 -29 -219 -11 -16 9 -48 11 -103 7 l-80 -5 -618
-618 c-340 -340 -616 -620 -615 -622 4 -3 432 -25 811 -42 889 -38 2485 -88
3350 -105 409 -8 512 -17 659 -55 137 -35 140 -36 187 -87 44 -45 43 -41 69
-221 19 -130 21 -179 18 -515 l-3 -372 24 -55 c32 -74 89 -149 138 -183 l40
-27 735 737 c972 975 997 1002 1064 1137 66 134 69 167 67 766 -2 767 -48
2777 -93 4120 -5 157 -14 427 -20 600 -10 283 -31 614 -46 711 l-5 36 -125 12
c-69 6 -134 16 -145 22 -11 5 -33 28 -48 50 l-29 39 -67 -35z"/>
</g>
</svg>
